<svg width="186" height="201" viewBox="0 0 186 201" fill="none" xmlns="http://www.w3.org/2000/svg">
<g filter="url(#filter0_d_231_196)">
<path d="M1.571 124.305C9.68618 152.377 27.6712 179.891 55.7407 185.777C73.2327 189.443 90.407 183.786 102.328 172.306C105.757 175.181 109.924 177.296 114.639 178.286L114.644 178.287C129.999 181.5 145.077 171.664 148.295 156.289C149.125 152.334 149.052 148.437 148.274 144.777C159.696 139.257 168.61 128.768 171.435 115.287C176.271 92.2228 161.485 69.6088 138.426 64.7733L138.423 64.7727C132.966 63.6307 127.58 63.633 122.466 64.5546C122.119 53.3847 118.257 43.083 111.952 34.7436C106.68 27.7313 99.6126 22.018 91.2418 18.3764C84.8198 15.5596 77.7281 14 70.2911 14C41.4619 14 18.0911 37.3707 18.0911 66.2C18.0911 78.4711 22.3314 89.7589 29.4153 98.6678C22.6819 105.457 17.6914 114.178 15.5715 124.302C15.5715 124.302 15.5715 124.302 15.571 124.305Z" fill="white"/>
</g>
<path fill-rule="evenodd" clip-rule="evenodd" d="M23 59.8295L23.763 56.1903C29.1751 30.3788 54.4752 13.8424 80.2879 19.2548L80.2881 19.2548C104.158 24.2613 120.058 46.2823 118.038 69.973C124.13 67.9859 130.795 67.4475 137.567 68.8645L137.568 68.8648C158.369 73.2268 171.706 93.6266 167.343 114.43C164.543 127.793 155.095 137.916 143.254 142.388C144.71 146.414 145.157 150.884 144.204 155.428C141.462 168.543 128.6 176.937 115.5 174.195L115.498 174.195C110.112 173.064 105.558 170.208 102.23 166.359C91.2557 178.875 74.0908 185.352 56.5988 181.685L56.5986 181.685C30.7874 176.273 14.2511 150.974 19.6628 125.161C21.9464 114.252 27.862 105.105 35.7719 98.5026C26.2977 88.4021 21.2511 74.3933 23.1536 59.8295H23ZM26.7278 56.812C26.7246 56.8272 26.7214 56.8425 26.7183 56.8577C26.5109 57.85 26.3386 58.841 26.2007 59.8295C24.2667 73.6849 29.0643 87.0515 38.1582 96.632C38.8597 97.3711 39.5868 98.0875 40.3383 98.78C39.5104 99.3758 38.7018 99.9989 37.9142 100.649C30.3859 106.858 24.7728 115.487 22.6183 125.78C17.5483 149.96 33.0383 173.66 57.2183 178.73C73.8042 182.206 90.0916 175.945 100.362 163.904C101.052 163.095 101.714 162.26 102.348 161.4C102.895 162.305 103.507 163.171 104.179 163.987C107.125 167.565 111.234 170.214 116.118 171.24C127.588 173.64 138.848 166.29 141.248 154.81C142.083 150.831 141.689 146.902 140.389 143.346C140.039 142.388 139.623 141.457 139.148 140.56C140.133 140.285 141.104 139.968 142.057 139.612C153.052 135.509 161.803 126.15 164.388 113.81C168.408 94.64 156.118 75.84 136.948 71.82C130.235 70.4151 123.621 71.098 117.635 73.3091C116.506 73.7262 115.399 74.1978 114.318 74.72C114.556 73.5283 114.744 72.3381 114.883 71.1514C117.558 48.4185 102.506 27 79.6683 22.21C56.5106 17.3544 33.7932 31.3569 27.4599 53.7905C27.1846 54.7655 26.9403 55.7564 26.7283 56.7624C26.7251 56.7776 26.7219 56.7928 26.7187 56.808C26.7185 56.8087 26.7184 56.8093 26.7183 56.81H26.7283C26.7281 56.8107 26.728 56.8113 26.7278 56.812Z" fill="#1E2E4D"/>
<path d="M26.7183 56.81C31.7883 32.63 55.4883 17.14 79.6683 22.21C103.698 27.25 119.108 50.7 114.318 74.72C121.128 71.43 128.968 70.15 136.948 71.82C156.118 75.84 168.408 94.64 164.388 113.81C161.578 127.22 151.488 137.11 139.148 140.56C141.388 144.79 142.308 149.76 141.248 154.81C138.848 166.29 127.588 173.64 116.118 171.24C110.118 169.98 105.288 166.27 102.348 161.4C92.2783 175.06 74.9183 182.44 57.2183 178.73C33.0382 173.66 17.5483 149.96 22.6183 125.78C24.9983 114.41 31.5983 105.07 40.3383 98.78C29.1383 88.46 23.3683 72.8 26.7283 56.81H26.7183Z" fill="url(#paint0_radial_231_196)"/>
<path d="M152.338 127.47C160.478 120.17 164.558 110.04 164.458 99.9C166.628 111.56 162.848 124.04 153.368 132.55C150.748 134.9 147.868 136.79 144.828 138.21C144.238 136.67 143.488 135.18 142.538 133.77C146.028 132.25 149.348 130.16 152.338 127.47Z" fill="#fab509a6"/>
<path d="M104.088 152.41C104.988 155.25 106.468 157.94 108.588 160.3V160.29C116.028 168.58 128.418 169.77 137.258 163.41C136.478 164.43 135.608 165.39 134.618 166.27C125.958 174.05 112.638 173.33 104.858 164.67C103.888 163.58 103.048 162.43 102.338 161.22C100.968 163.12 99.4282 164.94 97.7182 166.65C81.2882 183.08 55.2383 183.98 37.7383 169.39C56.4782 178.71 79.7482 176.23 96.2482 161.3C99.2482 158.59 101.858 155.59 104.088 152.41Z" fill="#fab509a6"/>
<defs>
<filter id="filter0_d_231_196" x="12.4556" y="12" width="169.896" height="184.886" filterUnits="userSpaceOnUse" color-interpolation-filters="sRGB">
<feFlood flood-opacity="0" result="BackgroundImageFix"/>
<feColorMatrix in="SourceAlpha" type="matrix" values="0 0 0 0 0 0 0 0 0 0 0 0 0 0 0 0 0 0 127 0" result="hardAlpha"/>
<feOffset dx="4" dy="4"/>
<feGaussianBlur stdDeviation="3"/>
<feColorMatrix type="matrix" values="0 0 0 0 0.117647 0 0 0 0 0.180392 0 0 0 0 0.301961 0 0 0 0.4 0"/>
<feBlend mode="normal" in2="BackgroundImageFix" result="effect1_dropShadow_231_196"/>
<feBlend mode="normal" in="SourceGraphic" in2="effect1_dropShadow_231_196" result="shape"/>
</filter>
<linearGradient id="paint1_linear_231_196" x1="69.361" y1="72.589" x2="66.0646" y2="112.684" gradientUnits="userSpaceOnUse">
<stop stop-color="#FFDEBE"/>
<stop offset="0.6" stop-color="#F5C1A7"/>
<stop offset="1" stop-color="#E88286"/>
</linearGradient>
<linearGradient id="paint0_radial_231_196" x1="0%" y1="0%" x2="0%" y2="100%">
  <stop offset="0%" style="stop-color: #ffffff; stop-opacity: 1" />
  <stop offset="100%" style="stop-color: #ffff9f; stop-opacity: 1" />
</linearGradient>
</defs>
</svg>
